<svg width="185" height="56" viewBox="0 0 185 56" fill="none" xmlns="http://www.w3.org/2000/svg">
<path fill-rule="evenodd" clip-rule="evenodd" d="M35.7411 0.145875V0H30.8588V0.145875C31.5517 0.885925 31.6608 2.50834 31.1859 3.50456L23.0922 20.8495L19.4692 12.2179L23.2892 3.98488C24.0173 2.35891 25.1816 0.846788 26.4936 0.142317V0H21.4636V0.145875C22.1566 0.885925 22.2656 2.50834 21.7908 3.50456L18.6461 10.2433L15.8357 3.50456C15.2869 2.1739 15.5085 0.885925 16.2015 0.145875V0H9.41276V0.145875C10.7951 1.1421 11.7413 2.72538 12.582 4.68935L16.6869 14.4488L13.7181 20.853L6.42291 3.50456C5.87418 2.1739 6.09578 0.885925 6.78872 0.145875V0H0V0.145875C1.38237 1.1421 2.32857 2.72538 3.16924 4.68935L12.4413 26.6489H12.8071L17.5346 16.4483L21.8365 26.6667H22.2023L32.5437 4.36914C33.3034 2.68268 34.5733 0.846788 35.7411 0.145875Z" fill="white"/>
<path fill-rule="evenodd" clip-rule="evenodd" d="M48.9752 0C58.05 0 63.5364 5.95371 63.5364 13.3334C63.5364 20.7095 58.05 26.6667 48.9752 26.6667C39.9005 26.6667 34.4141 20.7095 34.4141 13.3334C34.4141 5.95723 39.9005 0 48.9752 0ZM48.9889 1.24268C41.8849 1.24268 38.5425 7.34074 38.5425 13.3332H38.5391C38.5391 19.3186 41.8849 25.4237 48.9889 25.4237C56.0928 25.4237 59.4352 19.3256 59.4352 13.3332C59.4352 7.34074 56.0928 1.24268 48.9889 1.24268Z" fill="white"/>
<path fill-rule="evenodd" clip-rule="evenodd" d="M67.2493 3.98239L67.5381 4.47707V22.9761C67.5381 24.6986 67.1448 24.9691 66.4592 25.7094V25.8553H70.4409V25.7094C69.7552 24.9691 69.3619 24.7129 69.3619 22.9761V7.57686L80.496 26.6667H80.8579L90.6242 6.44514V22.969C90.6242 24.6915 90.2309 24.962 89.5452 25.7022V25.8482H95.3089V25.7022C94.6232 24.962 94.2299 24.7058 94.2299 22.969V2.88269C94.2299 1.1602 94.6232 0.886162 95.3089 0.149473V0.00711776H89.5174V0.153032C90.203 0.893279 90.5963 1.14952 90.5963 2.88625V3.02505L81.6898 21.5561L69.1218 0H63.5391V0.145914C65.0496 0.968016 66.3826 2.51257 67.2493 3.98239Z" fill="white"/>
<path fill-rule="evenodd" clip-rule="evenodd" d="M101.7 20.5164L101.023 21.8907C100.444 23.1603 100.626 24.4614 101.318 25.1904V25.3334H96.6328V25.1904C97.8645 24.4997 98.8857 22.9406 99.6472 21.4233L106.999 6.50861L105.823 3.91005C105.132 2.35091 104.262 0.868513 102.991 0.143008V0H108.073L117.446 20.7292C118.137 22.2883 119.081 24.2067 120.46 25.1834V25.3264H113.593V25.1834C114.284 24.4579 114.537 23.1952 113.958 21.8907L113.337 20.5164H101.7ZM102.414 19.074H112.689L107.762 8.19141L102.414 19.074Z" fill="white"/>
<path fill-rule="evenodd" clip-rule="evenodd" d="M123.236 4.2587V22.9742C123.236 24.6976 122.844 24.9682 122.16 25.7088V25.8548H126.115V25.7088C125.431 24.9682 125.039 24.7118 125.039 22.9742V5.96787L146.821 26.6667H147.182V2.87711C147.182 1.15369 147.575 0.879513 148.259 0.142431V0H144.304V0.145992C144.988 0.886635 145.38 1.14301 145.38 2.88067V20.0686L124.514 0H117.812V0.145992C119.611 0.957851 122.341 3.43616 122.952 3.99164L123.236 4.2587Z" fill="white"/>
<path fill-rule="evenodd" clip-rule="evenodd" d="M46.332 29.4646C46.9623 30.1906 47.3238 30.4418 47.3238 32.1449V51.842C47.3238 53.5312 46.9623 53.7999 46.332 54.5223V54.6654H51.627V54.5188C50.9967 53.7929 50.6352 53.5416 50.6352 51.8386V32.1554C50.6352 30.4663 50.9967 30.1975 51.627 29.4751V29.332H46.332V29.4751V29.4646Z" fill="white"/>
<path fill-rule="evenodd" clip-rule="evenodd" d="M104.578 29.4646C105.208 30.1906 105.569 30.4418 105.569 32.1449V51.842C105.569 53.5312 105.208 53.7999 104.578 54.5223V54.6654H109.873V54.5188C109.25 53.7999 108.863 53.5486 108.863 51.8455V32.1554C108.863 30.4663 109.224 30.1975 109.854 29.4751V29.332H104.578V29.4751V29.4646Z" fill="white"/>
<path fill-rule="evenodd" clip-rule="evenodd" d="M133.689 42.0774C134.361 42.8097 134.747 43.0632 134.747 44.7814V49.9324C134.798 50.5274 134.702 51.0942 134.464 51.6364C133.368 53.682 131.072 54.6679 128.176 54.6679C121.462 54.6679 117.886 49.2634 117.886 42.6478C117.886 36.0322 121.301 30.6171 128.179 30.6171C128.971 30.6171 129.755 30.7052 130.53 30.8882C131.304 31.0678 132.048 31.3354 132.761 31.691C133.478 32.0466 134.146 32.4761 134.767 32.9866C135.388 33.4972 135.948 34.0711 136.446 34.7083H136.623L137.084 30.6171H136.906C136.746 30.7756 136.562 30.8882 136.35 30.9587C136.139 31.0291 135.924 31.0467 135.705 31.015C134.47 30.8706 132.352 29.332 128.183 29.332C119.282 29.332 113.84 34.8668 113.84 42.6654C113.84 50.464 119.527 55.9987 128.183 55.9987C133.201 55.9987 134.436 54.2454 136.343 54.2454C136.729 54.2454 137.654 54.5376 137.793 54.8298H137.933V44.7849C137.933 43.0808 138.319 42.8133 138.991 42.0809V41.9331H133.693V42.0774H133.689Z" fill="white"/>
<path fill-rule="evenodd" clip-rule="evenodd" d="M78.1374 29.478C78.8185 30.2184 79.2092 30.4747 79.2092 32.2119V48.8364L60.7736 29.332H54.2734V29.478C56.2408 30.5851 58.1009 32.6534 58.6783 33.2443L58.9653 33.5398V52.3036C58.9653 54.0266 58.5746 54.3007 57.8935 55.0376V55.1835H61.8316V55.034C61.1505 54.2936 60.7598 54.0373 60.7598 52.3001V35.398L80.6406 55.9987H81.0002V32.2226C81.0002 30.4997 81.3909 30.2255 82.072 29.4887V29.3427H78.1374V29.4887V29.478Z" fill="white"/>
<path fill-rule="evenodd" clip-rule="evenodd" d="M94.6131 40.7419C91.07 37.885 89.16 36.1773 89.4724 33.6138C89.4937 33.4052 89.5328 33.2002 89.5931 32.9951C89.6535 32.7935 89.7316 32.5991 89.8274 32.4117C89.9233 32.2243 90.0369 32.0475 90.1683 31.8813C90.2996 31.7151 90.4452 31.5631 90.6014 31.4252C90.7611 31.2873 90.9315 31.1671 91.1126 31.061C91.2937 30.9549 91.4854 30.8701 91.6842 30.7994C91.883 30.7287 92.0889 30.6792 92.2948 30.6509C92.5043 30.619 92.7137 30.612 92.9232 30.619C95.6426 30.619 97.8153 32.3091 99.246 34.3599H99.4306L99.8318 30.4352H99.6472C99.2709 30.7004 98.8555 30.8347 98.3975 30.8383C97.3325 30.8383 95.9337 29.332 92.8309 29.332C89.7245 29.332 86.0678 31.2767 86.0678 35.4949C86.0678 39.0801 89.121 41.3076 91.8759 43.5635C95.9905 46.9401 97.0591 48.1034 97.0591 51.1194C97.0591 53.4671 95.1491 54.7541 93.2036 54.7541C90.5552 54.7541 88.095 52.8837 86.185 49.7263H86.043V54.938H86.1885C86.3341 54.6445 86.998 54.4607 87.3991 54.4607C88.7624 54.4607 89.9694 55.9987 93.0616 55.9987C95.632 55.9987 100.851 54.4218 100.595 48.7327C100.453 45.5506 97.3644 42.9801 94.6131 40.7419Z" fill="white"/>
<path fill-rule="evenodd" clip-rule="evenodd" d="M158.5 35.9776C159.169 36.7032 159.553 36.9544 159.553 38.6567V44.4127H146.192V32.1542C146.192 30.4658 146.575 30.1972 147.244 29.4751V29.332H141.641V29.4751C142.31 30.2007 142.693 30.4518 142.693 32.1542V51.8432C142.693 53.5316 142.31 53.8003 141.641 54.5224V54.6654H147.265V54.5049C146.596 53.7793 146.212 53.5282 146.212 51.8258V45.857H159.573V51.8293C159.573 53.5177 159.189 53.7863 158.52 54.5084V54.6514H164.144V54.5049C163.475 53.7793 163.091 53.5282 163.091 51.8258V38.6567C163.091 36.9683 163.475 36.7032 164.144 35.9776V35.8346H158.5V35.9776V35.9776Z" fill="white"/>
<path fill-rule="evenodd" clip-rule="evenodd" d="M183.641 29.332H158.58L157.527 33.096H157.671C157.997 32.6743 159.194 30.7818 163.554 30.7818H171.654V51.8459C171.654 53.5327 171.258 53.8011 170.567 54.5225V54.6654H176.376V54.4911C175.685 53.7662 175.288 53.5153 175.288 51.8146V30.7505H180.554C181.182 30.7505 181.782 30.8794 182.357 31.1304C182.932 31.3813 183.434 31.7368 183.858 32.1968H184.002L183.641 29.332Z" fill="white"/>
</svg>
