<svg width="16" height="16" viewBox="0 0 16 16" fill="none" xmlns="http://www.w3.org/2000/svg">
<path fill-rule="evenodd" clip-rule="evenodd" d="M14.8261 7.65628C14.8355 7.66437 14.8446 7.67288 14.8536 7.68178C14.9673 7.79554 15.0148 7.95046 14.996 8.09859C14.9828 8.20535 14.9353 8.30867 14.8533 8.39062C14.8455 8.39847 14.8374 8.40601 14.8292 8.41323L11.7424 11.5C11.5472 11.6953 11.2306 11.6953 11.0353 11.5C10.8401 11.3047 10.8401 10.9882 11.0353 10.7929L13.3046 8.52362H6C5.72386 8.52362 5.5 8.29976 5.5 8.02362C5.5 7.74747 5.72386 7.52362 6 7.52362L13.2792 7.52362L11.0351 5.27951C10.8399 5.08425 10.8399 4.76767 11.0351 4.57241C11.2304 4.37715 11.547 4.37715 11.7422 4.57241L14.8261 7.65628ZM6 2L2 2V14H6H9C9.27614 14 9.5 14.2239 9.5 14.5C9.5 14.7761 9.27614 15 9 15H6H1.8C1.3576 15 1 14.5849 1 14.0714V1.92857C1 1.41507 1.3576 1 1.8 1L6 1H9C9.27614 1 9.5 1.22386 9.5 1.5C9.5 1.77614 9.27614 2 9 2H6Z" fill="#171717"/>
</svg>
