<svg width="24" height="24" viewBox="0 0 24 24" fill="none" xmlns="http://www.w3.org/2000/svg">
<path fill-rule="evenodd" clip-rule="evenodd" d="M19.4239 17C19.9132 17 20.1345 16.6576 19.9159 16.2402L17.3333 11.9091V8.09091C17.3333 5.27945 14.9454 3 12.0002 3C9.05501 3 6.66712 5.27945 6.66712 8.09091V11.9091L4.08456 16.2402C3.86591 16.6576 4.08723 17 4.57654 17H19.4239ZM20.7748 15.728L18.3333 11.6336V8.09091C18.3333 4.68388 15.4534 2 12.0002 2C8.54703 2 5.66712 4.68388 5.66712 8.09091V11.6336L3.22567 15.728C3.21624 15.7438 3.20726 15.7599 3.19872 15.7762C2.97663 16.2002 2.88386 16.792 3.22554 17.32C3.55775 17.8333 4.11729 18 4.57654 18H19.4239C19.8831 18 20.4427 17.8333 20.7749 17.32C21.1166 16.792 21.0238 16.2002 20.8017 15.7762C20.7932 15.7599 20.7842 15.7438 20.7748 15.728ZM10.5 19C10.5 18.7239 10.2761 18.5 10 18.5C9.72386 18.5 9.5 18.7239 9.5 19C9.5 20.3797 10.6202 21.4987 12 21.4987C13.3798 21.4987 14.5 20.3797 14.5 19C14.5 18.7239 14.2761 18.5 14 18.5C13.7239 18.5 13.5 18.7239 13.5 19C13.5 19.8268 12.8282 20.4987 12 20.4987C11.1718 20.4987 10.5 19.8268 10.5 19Z" fill="#8A92B9"/>
<path fill-rule="evenodd" clip-rule="evenodd" d="M19.4239 17C19.9132 17 20.1345 16.6576 19.9159 16.2402L17.3333 11.9091V8.09091C17.3333 5.27945 14.9454 3 12.0002 3C9.05501 3 6.66712 5.27945 6.66712 8.09091V11.9091L4.08456 16.2402C3.86591 16.6576 4.08723 17 4.57654 17H19.4239ZM20.7748 15.728L18.3333 11.6336V8.09091C18.3333 4.68388 15.4534 2 12.0002 2C8.54703 2 5.66712 4.68388 5.66712 8.09091V11.6336L3.22567 15.728C3.21624 15.7438 3.20726 15.7599 3.19872 15.7762C2.97663 16.2002 2.88386 16.792 3.22554 17.32C3.55775 17.8333 4.11729 18 4.57654 18H19.4239C19.8831 18 20.4427 17.8333 20.7749 17.32C21.1166 16.792 21.0238 16.2002 20.8017 15.7762C20.7932 15.7599 20.7842 15.7438 20.7748 15.728ZM10.5 19C10.5 18.7239 10.2761 18.5 10 18.5C9.72386 18.5 9.5 18.7239 9.5 19C9.5 20.3797 10.6202 21.4987 12 21.4987C13.3798 21.4987 14.5 20.3797 14.5 19C14.5 18.7239 14.2761 18.5 14 18.5C13.7239 18.5 13.5 18.7239 13.5 19C13.5 19.8268 12.8282 20.4987 12 20.4987C11.1718 20.4987 10.5 19.8268 10.5 19Z" fill="#3A3A3A"/>
<path fill-rule="evenodd" clip-rule="evenodd" d="M19.4239 17C19.9132 17 20.1345 16.6576 19.9159 16.2402L17.3333 11.9091V8.09091C17.3333 5.27945 14.9454 3 12.0002 3C9.05501 3 6.66712 5.27945 6.66712 8.09091V11.9091L4.08456 16.2402C3.86591 16.6576 4.08723 17 4.57654 17H19.4239ZM20.7748 15.728L18.3333 11.6336V8.09091C18.3333 4.68388 15.4534 2 12.0002 2C8.54703 2 5.66712 4.68388 5.66712 8.09091V11.6336L3.22567 15.728C3.21624 15.7438 3.20726 15.7599 3.19872 15.7762C2.97663 16.2002 2.88386 16.792 3.22554 17.32C3.55775 17.8333 4.11729 18 4.57654 18H19.4239C19.8831 18 20.4427 17.8333 20.7749 17.32C21.1166 16.792 21.0238 16.2002 20.8017 15.7762C20.7932 15.7599 20.7842 15.7438 20.7748 15.728ZM10.5 19C10.5 18.7239 10.2761 18.5 10 18.5C9.72386 18.5 9.5 18.7239 9.5 19C9.5 20.3797 10.6202 21.4987 12 21.4987C13.3798 21.4987 14.5 20.3797 14.5 19C14.5 18.7239 14.2761 18.5 14 18.5C13.7239 18.5 13.5 18.7239 13.5 19C13.5 19.8268 12.8282 20.4987 12 20.4987C11.1718 20.4987 10.5 19.8268 10.5 19Z" fill="white"/>
</svg>
