<svg width="24" height="24" viewBox="0 0 24 24" fill="none" xmlns="http://www.w3.org/2000/svg">
<path fill-rule="evenodd" clip-rule="evenodd" d="M6.5 2C6.22386 2 6 2.22386 6 2.5V4.5C6 4.77614 6.22386 5 6.5 5C6.77614 5 7 4.77614 7 4.5V2.5C7 2.22386 6.77614 2 6.5 2ZM17.5 2C17.2239 2 17 2.22386 17 2.5V4.5C17 4.77614 17.2239 5 17.5 5C17.7761 5 18 4.77614 18 4.5V2.5C18 2.22386 17.7761 2 17.5 2ZM8 3.5C8 3.22386 8.22386 3 8.5 3H15.5C15.7761 3 16 3.22386 16 3.5C16 3.77614 15.7761 4 15.5 4H8.5C8.22386 4 8 3.77614 8 3.5ZM3.5 4H3V8H21V4H20.5H20H19.5C19.2239 4 19 3.77614 19 3.5C19 3.22386 19.2239 3 19.5 3H20H20.5H21C21.5523 3 22 3.44772 22 4V22C22 22.5523 21.5523 23 21 23H3C2.44772 23 2 22.5523 2 22V4C2 3.44772 2.44772 3 3 3H3.5H4H4.5C4.77614 3 5 3.22386 5 3.5C5 3.77614 4.77614 4 4.5 4H4H3.5ZM21 9H3V22H21V9ZM11.0064 15.113C10.9905 14.9731 11.0043 14.8314 11.047 14.6971C11.0896 14.5629 11.1602 14.4391 11.254 14.334C11.3478 14.229 11.4628 14.1449 11.5913 14.0873C11.7199 14.0298 11.8592 14 12 14C12.1409 14 12.2801 14.0298 12.4087 14.0873C12.5372 14.1449 12.6522 14.229 12.746 14.334C12.8398 14.4391 12.9104 14.5629 12.953 14.6971C12.9957 14.8314 13.0095 14.9731 12.9936 15.113C12.9658 15.3571 12.8492 15.5824 12.6659 15.746C12.4827 15.9096 12.2457 16 12 16C11.7544 16 11.5173 15.9096 11.3341 15.746C11.1508 15.5824 11.0342 15.3571 11.0064 15.113Z" fill="white"/>
</svg>
