<svg width="24" height="24" viewBox="0 0 24 24" fill="none" xmlns="http://www.w3.org/2000/svg">
<path fill-rule="evenodd" clip-rule="evenodd" d="M20.5 12C20.5 16.6944 16.6944 20.5 12 20.5C7.30558 20.5 3.5 16.6944 3.5 12C3.5 7.30558 7.30558 3.5 12 3.5C16.6944 3.5 20.5 7.30558 20.5 12ZM21.5 12C21.5 17.2467 17.2467 21.5 12 21.5C6.75329 21.5 2.5 17.2467 2.5 12C2.5 6.75329 6.75329 2.5 12 2.5C17.2467 2.5 21.5 6.75329 21.5 12ZM14.254 13.7074L12.9497 9.70312H12.094L10.7897 13.641L9.95066 10.592C9.93404 10.5422 9.92574 10.4896 9.92574 10.4342C9.92574 10.3068 9.97004 10.2099 10.0587 10.1434C10.1528 10.0714 10.283 10.0299 10.4491 10.0188V9.70312H7.63281V10.0188C7.77127 10.0299 7.89312 10.0742 7.99835 10.1517C8.10912 10.2237 8.18666 10.3345 8.23097 10.484L9.80943 15.5185H10.5904L11.9528 11.6139L13.2904 15.5102H14.0464L15.8159 10.6502C15.9045 10.412 16.0042 10.2514 16.115 10.1684C16.2313 10.0853 16.3642 10.0354 16.5137 10.0188V9.70312H14.6113V10.0188C14.8217 10.0299 14.9879 10.077 15.1097 10.16C15.2371 10.2376 15.298 10.3539 15.2925 10.509C15.2925 10.5588 15.2787 10.6253 15.251 10.7084L14.254 13.7074Z" fill="white"/>
</svg>
