<svg width="24" height="24" viewBox="0 0 24 24" fill="none" xmlns="http://www.w3.org/2000/svg">
<path fill-rule="evenodd" clip-rule="evenodd" d="M14 3H21V7H14V3ZM13 3C13 2.44772 13.4477 2 14 2H21C21.5523 2 22 2.44772 22 3V7C22 7.55228 21.5523 8 21 8H14C13.4477 8 13 7.55228 13 7V3ZM3 16H10V22H3L3 16ZM2 16C2 15.4477 2.44772 15 3 15H10C10.5523 15 11 15.4477 11 16V22C11 22.5523 10.5523 23 10 23H3C2.44772 23 2 22.5523 2 22V16ZM10 3H3L3 13L10 13V3ZM3 2C2.44772 2 2 2.44772 2 3V13C2 13.5523 2.44772 14 3 14H10C10.5523 14 11 13.5523 11 13V3C11 2.44772 10.5523 2 10 2H3ZM14 10H21V22H14V10ZM13 10C13 9.44772 13.4477 9 14 9H21C21.5523 9 22 9.44772 22 10V22C22 22.5523 21.5523 23 21 23H14C13.4477 23 13 22.5523 13 22V10Z" fill="#DD2A3B"/>
</svg>
