<svg width="24" height="24" viewBox="0 0 24 24" fill="none" xmlns="http://www.w3.org/2000/svg">
<path fill-rule="evenodd" clip-rule="evenodd" d="M7.95196 8.26928L4.75 4H10.7981L7.95196 8.26928ZM8.56852 9.14722L12 4L15.4317 9.14749L12.0001 20.2999L8.56852 9.14722ZM7.63484 9.51312L3.63935 4.1858L1.19337 8.87393L11.1341 20.8856L7.63484 9.51312ZM12.8667 20.8838L22.806 8.87393L20.3603 4.18632L16.3656 9.51252L12.8667 20.8838ZM13.2019 4H19.25L16.048 8.26928L13.2019 4ZM2.8497 3.53743C3.02204 3.20712 3.36372 3 3.73629 3H20.263C20.6356 3 20.9773 3.20712 21.1496 3.53743L23.6926 8.41136C23.8787 8.76806 23.8329 9.20154 23.5764 9.51149L12.7701 22.5691C12.3701 23.0523 11.6292 23.0523 11.2293 22.5691L0.422975 9.5115C0.166465 9.20155 0.120682 8.76806 0.306784 8.41136L2.8497 3.53743Z" fill="white"/>
</svg>
