<svg width="24" height="24" viewBox="0 0 24 24" fill="none" xmlns="http://www.w3.org/2000/svg">
<path fill-rule="evenodd" clip-rule="evenodd" d="M17 6V5.62766C17 3.07447 14.85 1 12 1C9.15 1 7 3.07447 7 5.65425V6H6.66834C5.14708 6 3.86663 7.13864 3.68889 8.64948L2.13198 21.8832C2.06204 22.4777 2.52654 23 3.12513 23H20.876C21.4746 23 21.9391 22.4777 21.8692 21.8832L20.3123 8.64948C20.1345 7.13864 18.8541 6 17.3328 6H17ZM8 6H16V5.62766C16 3.6867 14.3596 2 12 2C9.64421 2 8 3.68309 8 5.65425V6ZM17.3328 7H6.66834C5.65416 7 4.80053 7.75909 4.68204 8.76632L3.12513 22H20.876L19.3191 8.76632C19.2006 7.75909 18.347 7 17.3328 7ZM6.04695 8.69713C6.00428 8.83138 5.99049 8.97307 6.00642 9.11303C6.03419 9.3571 6.1508 9.58242 6.33405 9.746C6.5173 9.90958 6.7544 10 7.00004 10C7.24568 10 7.4827 9.90958 7.66595 9.746C7.8492 9.58242 7.96581 9.3571 7.99358 9.11303C8.00951 8.97307 7.99572 8.83138 7.95305 8.69713C7.91038 8.56289 7.8398 8.43913 7.746 8.33405C7.65219 8.22897 7.53722 8.1449 7.40866 8.08733C7.2801 8.02976 7.1409 8 7.00004 8C6.85918 8 6.7199 8.02976 6.59134 8.08733C6.46278 8.1449 6.34781 8.22897 6.254 8.33405C6.1602 8.43913 6.08962 8.56289 6.04695 8.69713ZM16.047 8.69713C16.0043 8.83138 15.9905 8.97307 16.0064 9.11303C16.0342 9.3571 16.1508 9.58242 16.3341 9.746C16.5173 9.90958 16.7544 10 17 10C17.2457 10 17.4827 9.90958 17.6659 9.746C17.8492 9.58242 17.9658 9.3571 17.9936 9.11303C18.0095 8.97307 17.9957 8.83138 17.953 8.69713C17.9104 8.56289 17.8398 8.43913 17.746 8.33405C17.6522 8.22897 17.5372 8.1449 17.4087 8.08733C17.2801 8.02976 17.1409 8 17 8C16.8592 8 16.7199 8.02976 16.5913 8.08733C16.4628 8.1449 16.3478 8.22897 16.254 8.33405C16.1602 8.43913 16.0896 8.56289 16.047 8.69713Z" fill="white"/>
</svg>
