<svg width="24" height="24" viewBox="0 0 24 24" fill="none" xmlns="http://www.w3.org/2000/svg">
<path fill-rule="evenodd" clip-rule="evenodd" d="M22.402 15.5836C21.9166 16.9958 21.1502 18.2909 20.1528 19.3926C19.9287 19.6401 19.693 19.8778 19.4462 20.1049L21.8345 22.1177C22.1911 22.4181 21.9786 23 21.5123 23H12C9.08261 23 6.28473 21.8406 4.22183 19.7768C2.15893 17.713 1 14.9139 1 11.9952C1.00159 10.1664 1.45871 8.3668 2.33007 6.75912C3.20143 5.15144 4.45954 3.78641 5.99067 2.78733C7.5218 1.78825 9.27773 1.18664 11.0996 1.03694C12.9215 0.887237 14.7519 1.19409 16.4255 1.92986C18.099 2.66562 19.5629 3.80704 20.6847 5.25094C21.8066 6.69484 22.5512 8.39572 22.851 10.1998C23.1509 12.0038 22.9965 13.8542 22.402 15.5836ZM18.7691 19.369C18.5577 19.5634 18.4402 19.8394 18.4464 20.1266C18.4527 20.4138 18.5821 20.6844 18.8018 20.8695L20.1432 22H12C9.34797 22 6.80449 20.946 4.92909 19.0698C3.05378 17.1937 2.00012 14.6491 2 11.9957C2.00151 10.3331 2.41711 8.69711 3.20924 7.23563C4.00142 5.77403 5.1452 4.53307 6.53714 3.62481C7.92907 2.71656 9.52533 2.16966 11.1815 2.03358C12.8377 1.89749 14.5016 2.17644 16.023 2.84529C17.5444 3.51414 18.8751 4.5518 19.8951 5.86449C20.915 7.1772 21.592 8.72356 21.8646 10.3637C22.1372 12.0039 21.9968 13.6862 21.4564 15.2586C20.9159 16.8309 19.9923 18.2435 18.7691 19.369ZM11.047 11.6971C11.0043 11.8314 10.9905 11.9731 11.0064 12.113C11.0342 12.3571 11.1508 12.5824 11.3341 12.746C11.5173 12.9096 11.7544 13 12 13C12.2457 13 12.4827 12.9096 12.666 12.746C12.8492 12.5824 12.9658 12.3571 12.9936 12.113C13.0095 11.9731 12.9957 11.8314 12.9531 11.6971C12.9104 11.5629 12.8398 11.4391 12.746 11.3341C12.6522 11.229 12.5372 11.1449 12.4087 11.0873C12.2801 11.0298 12.1409 11 12 11C11.8592 11 11.7199 11.0298 11.5913 11.0873C11.4628 11.1449 11.3478 11.229 11.254 11.3341C11.1602 11.4391 11.0896 11.5629 11.047 11.6971ZM15.0064 12.113C14.9905 11.9731 15.0043 11.8314 15.047 11.6971C15.0896 11.5629 15.1602 11.4391 15.254 11.3341C15.3478 11.229 15.4628 11.1449 15.5913 11.0873C15.7199 11.0298 15.8592 11 16 11C16.1409 11 16.2801 11.0298 16.4087 11.0873C16.5372 11.1449 16.6522 11.229 16.746 11.3341C16.8398 11.4391 16.9104 11.5629 16.9531 11.6971C16.9957 11.8314 17.0095 11.9731 16.9936 12.113C16.9658 12.3571 16.8492 12.5824 16.6659 12.746C16.4827 12.9096 16.2457 13 16 13C15.7544 13 15.5173 12.9096 15.3341 12.746C15.1508 12.5824 15.0342 12.3571 15.0064 12.113ZM7.04695 11.6971C7.00428 11.8314 6.99049 11.9731 7.00642 12.113C7.03419 12.3571 7.1508 12.5824 7.33405 12.746C7.5173 12.9096 7.7544 13 8.00004 13C8.24568 13 8.4827 12.9096 8.66595 12.746C8.8492 12.5824 8.96581 12.3571 8.99358 12.113C9.00951 11.9731 8.99572 11.8314 8.95305 11.6971C8.91038 11.5629 8.8398 11.4391 8.746 11.3341C8.65219 11.229 8.53722 11.1449 8.40866 11.0873C8.2801 11.0298 8.1409 11 8.00004 11C7.85918 11 7.7199 11.0298 7.59134 11.0873C7.46278 11.1449 7.34781 11.229 7.254 11.3341C7.16019 11.4391 7.08962 11.5629 7.04695 11.6971Z" fill="white"/>
</svg>
